<svg xmlns="http://www.w3.org/2000/svg" width="900" height="320" viewBox="0 0 900 320">
  <rect width="100%" height="100%" fill="white"/>
  <text x="30" y="34" font-family="Arial" font-size="24">Sorcerer 125 DD style — top profile</text>
  <text x="30" y="62" font-family="Arial" font-size="15">Maximum body width about 13–15 mm; tail narrowed for stable trolling.</text>
  <path d="M100,160 C142,123 218,111 316,116 C440,122 579,130 718,151 C750,156 766,165 744,174 C665,200 526,207 382,204 C242,201 138,190 100,160 Z" fill="#f6f6f6" stroke="black" stroke-width="2"/>
  <path d="M100,160 C142,197 218,209 316,204 C440,198 579,190 718,169 C750,164 766,155 744,146 C665,120 526,113 382,116 C242,119 138,130 100,160 Z" fill="#f6f6f6" stroke="black" stroke-width="2"/>
  <line x1="100" y1="160" x2="748" y2="160" stroke="#444" stroke-width="2" stroke-dasharray="9 5"/>
  <polygon points="92,160 25,132 36,188" fill="#eeeeee" stroke="black" stroke-width="2"/>
  <circle cx="55" cy="160" r="6" fill="white" stroke="black" stroke-width="2"/>
  <circle cx="292" cy="160" r="5" fill="white" stroke="black" stroke-width="2"/>
  <circle cx="506" cy="160" r="5" fill="white" stroke="black" stroke-width="2"/>
  <circle cx="747" cy="160" r="5" fill="white" stroke="black" stroke-width="2"/>
  <line x1="260" y1="101" x2="260" y2="219" stroke="black" stroke-width="1"/>
  <line x1="251" y1="101" x2="269" y2="101" stroke="black"/>
  <line x1="251" y1="219" x2="269" y2="219" stroke="black"/>
  <text x="274" y="164" font-family="Arial" font-size="15">13–15 mm max</text>
  <line x1="100" y1="250" x2="748" y2="250" stroke="black" stroke-width="1.4"/>
  <line x1="100" y1="245" x2="100" y2="255" stroke="black"/>
  <line x1="748" y1="245" x2="748" y2="255" stroke="black"/>
  <text x="380" y="275" font-family="Arial" font-size="16">125 mm</text>
</svg>
